<svg width="40" height="46" viewBox="0 0 40 46" fill="none" xmlns="http://www.w3.org/2000/svg">
<path d="M7.75 4.64331C7.75 2.84838 9.20507 1.39331 11 1.39331H27C27.1057 1.39331 27.2064 1.43816 27.2771 1.51671L38.071 13.5067C38.1862 13.6347 38.25 13.8008 38.25 13.973V41.0757C38.25 42.8707 36.7949 44.3257 35 44.3257H11C9.20507 44.3257 7.75 42.8707 7.75 41.0757V4.64331Z" stroke="#D0D5DD" stroke-width="1.5"/>
<path d="M27 1.19873V9.97305C27 12.1822 28.7909 13.9731 31 13.9731H38.5" stroke="#D0D5DD" stroke-width="1.5"/>
<rect x="1" y="21.5244" width="28" height="16" rx="2" fill="#0B9692"/>
<path d="M11.2726 28.7979H9.71724C9.68883 28.5966 9.63083 28.4179 9.54324 28.2616C9.45564 28.103 9.34319 27.9681 9.20588 27.8568C9.06857 27.7455 8.90995 27.6603 8.73002 27.6011C8.55247 27.5419 8.35952 27.5123 8.15119 27.5123C7.77477 27.5123 7.44688 27.6059 7.16752 27.7929C6.88817 27.9775 6.67155 28.2474 6.51767 28.6025C6.36378 28.9553 6.28684 29.3838 6.28684 29.8881C6.28684 30.4065 6.36378 30.8421 6.51767 31.1949C6.67392 31.5476 6.89172 31.8139 7.17108 31.9939C7.45043 32.1738 7.77359 32.2638 8.14054 32.2638C8.3465 32.2638 8.53708 32.2365 8.71227 32.1821C8.88983 32.1276 9.04726 32.0483 9.18457 31.9442C9.32188 31.8376 9.43552 31.7086 9.52548 31.5571C9.61781 31.4056 9.68173 31.2327 9.71724 31.0386L11.2726 31.0457C11.2324 31.3795 11.1318 31.7015 10.9708 32.0116C10.8122 32.3194 10.5979 32.5952 10.328 32.839C10.0605 33.0805 9.74092 33.2723 9.36923 33.4143C8.99991 33.554 8.58206 33.6238 8.11568 33.6238C7.467 33.6238 6.88699 33.4771 6.37562 33.1835C5.86663 32.8899 5.46416 32.465 5.16824 31.9086C4.87467 31.3523 4.72789 30.6788 4.72789 29.8881C4.72789 29.095 4.87704 28.4202 5.17534 27.8639C5.47363 27.3076 5.87846 26.8838 6.38983 26.5926C6.90119 26.299 7.47647 26.1523 8.11568 26.1523C8.53708 26.1523 8.9277 26.2114 9.28755 26.3298C9.64977 26.4482 9.97056 26.621 10.2499 26.8483C10.5293 27.0732 10.7565 27.349 10.9317 27.6757C11.1093 28.0024 11.2229 28.3764 11.2726 28.7979ZM16.3206 28.3433C16.2922 28.0568 16.1702 27.8343 15.9548 27.6757C15.7394 27.5171 15.447 27.4378 15.0777 27.4378C14.8267 27.4378 14.6148 27.4733 14.442 27.5443C14.2692 27.613 14.1366 27.7088 14.0443 27.8319C13.9543 27.955 13.9094 28.0947 13.9094 28.251C13.9046 28.3812 13.9318 28.4948 13.991 28.5919C14.0526 28.689 14.1366 28.773 14.2432 28.844C14.3497 28.9127 14.4728 28.973 14.6125 29.0251C14.7522 29.0748 14.9013 29.1175 15.0599 29.153L15.7133 29.3092C16.0306 29.3802 16.3218 29.4749 16.5869 29.5933C16.8521 29.7117 17.0817 29.8573 17.2758 30.0301C17.47 30.2029 17.6203 30.4065 17.7268 30.6409C17.8357 30.8753 17.8914 31.144 17.8937 31.447C17.8914 31.8921 17.7777 32.278 17.5528 32.6047C17.3303 32.929 17.0083 33.1811 16.5869 33.3611C16.1679 33.5386 15.6624 33.6274 15.0706 33.6274C14.4835 33.6274 13.9721 33.5374 13.5365 33.3575C13.1032 33.1776 12.7647 32.9113 12.5209 32.5585C12.2794 32.2034 12.1527 31.7642 12.1409 31.241H13.6288C13.6454 31.4849 13.7152 31.6885 13.8383 31.8518C13.9638 32.0128 14.1307 32.1347 14.339 32.2176C14.5497 32.2981 14.7877 32.3383 15.0528 32.3383C15.3132 32.3383 15.5393 32.3005 15.7311 32.2247C15.9252 32.1489 16.0756 32.0436 16.1821 31.9086C16.2886 31.7737 16.3419 31.6186 16.3419 31.4434C16.3419 31.2801 16.2934 31.1428 16.1963 31.0315C16.1016 30.9202 15.9619 30.8256 15.7773 30.7474C15.595 30.6693 15.3712 30.5983 15.1061 30.5344L14.3142 30.3355C13.701 30.1863 13.2169 29.9532 12.8618 29.6359C12.5067 29.3187 12.3303 28.8914 12.3327 28.354C12.3303 27.9136 12.4475 27.5289 12.6842 27.1998C12.9233 26.8708 13.2512 26.6139 13.6679 26.4292C14.0845 26.2446 14.558 26.1523 15.0883 26.1523C15.6281 26.1523 16.0992 26.2446 16.5017 26.4292C16.9065 26.6139 17.2214 26.8708 17.4463 27.1998C17.6712 27.5289 17.7872 27.9101 17.7943 28.3433H16.3206ZM20.2419 26.2517L21.9997 31.7773H22.0672L23.8286 26.2517H25.5331L23.026 33.5244H21.0445L18.5338 26.2517H20.2419Z" fill="white"/>
</svg>
