<svg width="40" height="46" viewBox="0 0 40 46" fill="none" xmlns="http://www.w3.org/2000/svg">
<path d="M7.75 4.64331C7.75 2.84838 9.20507 1.39331 11 1.39331H27C27.1057 1.39331 27.2064 1.43816 27.2771 1.51671L38.071 13.5067C38.1862 13.6347 38.25 13.8008 38.25 13.973V41.0757C38.25 42.8707 36.7949 44.3257 35 44.3257H11C9.20507 44.3257 7.75 42.8707 7.75 41.0757V4.64331Z" stroke="#D0D5DD" stroke-width="1.5"/>
<path d="M27 1.19873V9.97305C27 12.1822 28.7909 13.9731 31 13.9731H38.5" stroke="#D0D5DD" stroke-width="1.5"/>
<rect x="1" y="21.5244" width="29" height="16" rx="2" fill="#155EEF"/>
<path d="M7.40163 33.5244H4.82351V26.2517H7.42294C8.15447 26.2517 8.78421 26.3973 9.31214 26.6885C9.84008 26.9773 10.2461 27.3928 10.5302 27.9349C10.8166 28.4771 10.9599 29.1257 10.9599 29.8809C10.9599 30.6385 10.8166 31.2896 10.5302 31.8341C10.2461 32.3786 9.83771 32.7964 9.30504 33.0876C8.77474 33.3788 8.14027 33.5244 7.40163 33.5244ZM6.36115 32.2069H7.33771C7.79226 32.2069 8.1746 32.1265 8.48473 31.9655C8.79723 31.8021 9.03161 31.55 9.18786 31.2091C9.34647 30.8658 9.42578 30.4231 9.42578 29.8809C9.42578 29.3435 9.34647 28.9044 9.18786 28.5635C9.03161 28.2226 8.79841 27.9716 8.48828 27.8106C8.17815 27.6497 7.79581 27.5692 7.34126 27.5692H6.36115V32.2069ZM18.7821 29.8881C18.7821 30.6811 18.6318 31.3559 18.3311 31.9122C18.0328 32.4685 17.6257 32.8935 17.1096 33.1871C16.5958 33.4782 16.0182 33.6238 15.3766 33.6238C14.7303 33.6238 14.1503 33.4771 13.6365 33.1835C13.1228 32.8899 12.7168 32.465 12.4185 31.9086C12.1202 31.3523 11.9711 30.6788 11.9711 29.8881C11.9711 29.095 12.1202 28.4202 12.4185 27.8639C12.7168 27.3076 13.1228 26.8838 13.6365 26.5926C14.1503 26.299 14.7303 26.1523 15.3766 26.1523C16.0182 26.1523 16.5958 26.299 17.1096 26.5926C17.6257 26.8838 18.0328 27.3076 18.3311 27.8639C18.6318 28.4202 18.7821 29.095 18.7821 29.8881ZM17.2232 29.8881C17.2232 29.3743 17.1462 28.9411 16.9924 28.5883C16.8408 28.2356 16.6266 27.9681 16.3496 27.7858C16.0726 27.6035 15.7483 27.5123 15.3766 27.5123C15.0049 27.5123 14.6806 27.6035 14.4036 27.7858C14.1266 27.9681 13.9112 28.2356 13.7573 28.5883C13.6058 28.9411 13.53 29.3743 13.53 29.8881C13.53 30.4018 13.6058 30.835 13.7573 31.1878C13.9112 31.5405 14.1266 31.808 14.4036 31.9903C14.6806 32.1726 15.0049 32.2638 15.3766 32.2638C15.7483 32.2638 16.0726 32.1726 16.3496 31.9903C16.6266 31.808 16.8408 31.5405 16.9924 31.1878C17.1462 30.835 17.2232 30.4018 17.2232 29.8881ZM26.3381 28.7979H24.7827C24.7543 28.5966 24.6963 28.4179 24.6087 28.2616C24.5211 28.103 24.4086 27.9681 24.2713 27.8568C24.134 27.7455 23.9754 27.6603 23.7955 27.6011C23.6179 27.5419 23.425 27.5123 23.2166 27.5123C22.8402 27.5123 22.5123 27.6059 22.233 27.7929C21.9536 27.9775 21.737 28.2474 21.5831 28.6025C21.4292 28.9553 21.3523 29.3838 21.3523 29.8881C21.3523 30.4065 21.4292 30.8421 21.5831 31.1949C21.7393 31.5476 21.9571 31.8139 22.2365 31.9939C22.5159 32.1738 22.839 32.2638 23.206 32.2638C23.4119 32.2638 23.6025 32.2365 23.7777 32.1821C23.9553 32.1276 24.1127 32.0483 24.25 31.9442C24.3873 31.8376 24.5009 31.7086 24.5909 31.5571C24.6832 31.4056 24.7472 31.2327 24.7827 31.0386L26.3381 31.0457C26.2978 31.3795 26.1972 31.7015 26.0362 32.0116C25.8776 32.3194 25.6634 32.5952 25.3935 32.839C25.1259 33.0805 24.8063 33.2723 24.4347 33.4143C24.0653 33.554 23.6475 33.6238 23.1811 33.6238C22.5324 33.6238 21.9524 33.4771 21.4411 33.1835C20.9321 32.8899 20.5296 32.465 20.2337 31.9086C19.9401 31.3523 19.7933 30.6788 19.7933 29.8881C19.7933 29.095 19.9425 28.4202 20.2408 27.8639C20.5391 27.3076 20.9439 26.8838 21.4553 26.5926C21.9666 26.299 22.5419 26.1523 23.1811 26.1523C23.6025 26.1523 23.9931 26.2114 24.353 26.3298C24.7152 26.4482 25.036 26.621 25.3153 26.8483C25.5947 27.0732 25.822 27.349 25.9972 27.6757C26.1747 28.0024 26.2884 28.3764 26.3381 28.7979Z" fill="white"/>
</svg>
