<svg width="40" height="46" viewBox="0 0 40 46" fill="none" xmlns="http://www.w3.org/2000/svg">
<path d="M7.75 4.70813C7.75 2.9132 9.20507 1.45813 11 1.45813H27C27.1057 1.45813 27.2064 1.50298 27.2771 1.58153L38.071 13.5715C38.1862 13.6995 38.25 13.8656 38.25 14.0379V41.1406C38.25 42.9355 36.7949 44.3906 35 44.3906H11C9.20507 44.3906 7.75 42.9355 7.75 41.1406V4.70813Z" stroke="#D0D5DD" stroke-width="1.5"/>
<path d="M27 1.26355V10.0379C27 12.247 28.7909 14.0379 31 14.0379H38.5" stroke="#D0D5DD" stroke-width="1.5"/>
<rect x="1" y="21.5892" width="26" height="16" rx="2" fill="#5E39F0"/>
<path d="M6.38947 26.3165V33.5892H4.85183V26.3165H6.38947ZM7.65456 26.3165H9.55087L11.5537 31.2029H11.6389L13.6418 26.3165H15.5381V33.5892H14.0466V28.8556H13.9862L12.1041 33.5537H11.0885L9.20641 28.8378H9.14604V33.5892H7.65456V26.3165ZM21.6274 28.6674C21.5777 28.4945 21.5078 28.3418 21.4179 28.2093C21.3279 28.0743 21.2178 27.9607 21.0876 27.8684C20.9598 27.7737 20.813 27.7014 20.6473 27.6517C20.4839 27.602 20.3028 27.5772 20.104 27.5772C19.7323 27.5772 19.4056 27.6695 19.1238 27.8541C18.8445 28.0388 18.6267 28.3075 18.4704 28.6603C18.3142 29.0106 18.2361 29.4391 18.2361 29.9458C18.2361 30.4524 18.313 30.8833 18.4669 31.2384C18.6208 31.5935 18.8386 31.8646 19.1203 32.0516C19.402 32.2363 19.7346 32.3286 20.1182 32.3286C20.4662 32.3286 20.7633 32.267 21.0095 32.1439C21.2581 32.0184 21.4475 31.8421 21.5777 31.6148C21.7103 31.3875 21.7765 31.1188 21.7765 30.8087L22.089 30.8549H20.214V29.6972H23.2574V30.6134C23.2574 31.2526 23.1224 31.8018 22.8525 32.2611C22.5827 32.718 22.211 33.0708 21.7375 33.3193C21.264 33.5656 20.7219 33.6887 20.1111 33.6887C19.4292 33.6887 18.8303 33.5383 18.3142 33.2377C17.7981 32.9346 17.3956 32.505 17.1068 31.9486C16.8203 31.3899 16.6771 30.727 16.6771 29.96C16.6771 29.3705 16.7623 28.8449 16.9328 28.3833C17.1056 27.9193 17.3471 27.5263 17.6572 27.2043C17.9674 26.8823 18.3284 26.6373 18.7403 26.4692C19.1523 26.3011 19.5985 26.2171 20.0791 26.2171C20.491 26.2171 20.8746 26.2774 21.2297 26.3982C21.5848 26.5166 21.8997 26.6846 22.1743 26.9024C22.4513 27.1202 22.6773 27.3795 22.8525 27.6801C23.0277 27.9784 23.1402 28.3075 23.1899 28.6674H21.6274Z" fill="white"/>
</svg>
