<svg width="40" height="46" viewBox="0 0 40 46" fill="none" xmlns="http://www.w3.org/2000/svg">
<path d="M7.75 4.64331C7.75 2.84838 9.20507 1.39331 11 1.39331H27C27.1057 1.39331 27.2064 1.43816 27.2771 1.51671L38.071 13.5067C38.1862 13.6347 38.25 13.8008 38.25 13.973V41.0757C38.25 42.8707 36.7949 44.3257 35 44.3257H11C9.20507 44.3257 7.75 42.8707 7.75 41.0757V4.64331Z" stroke="#D0D5DD" stroke-width="1.5"/>
<path d="M27 1.19873V9.97305C27 12.1822 28.7909 13.9731 31 13.9731H38.5" stroke="#D0D5DD" stroke-width="1.5"/>
<rect x="1" y="21.5244" width="26" height="16" rx="2" fill="#D92D20"/>
<path d="M4.8323 33.5244V26.2517H7.70162C8.25323 26.2517 8.72316 26.357 9.11142 26.5677C9.49967 26.7761 9.7956 27.0661 9.9992 27.4378C10.2052 27.8071 10.3082 28.2332 10.3082 28.7162C10.3082 29.1991 10.204 29.6253 9.99565 29.9946C9.78732 30.3639 9.48547 30.6515 9.09011 30.8575C8.69712 31.0635 8.22127 31.1665 7.66255 31.1665H5.83372V29.9342H7.41397C7.7099 29.9342 7.95375 29.8833 8.14551 29.7815C8.33964 29.6773 8.48405 29.5341 8.57875 29.3518C8.67581 29.1672 8.72434 28.9553 8.72434 28.7162C8.72434 28.4747 8.67581 28.264 8.57875 28.0841C8.48405 27.9018 8.33964 27.7609 8.14551 27.6615C7.95138 27.5597 7.70517 27.5088 7.40687 27.5088H6.36994V33.5244H4.8323ZM13.885 33.5244H11.3069V26.2517H13.9063C14.6379 26.2517 15.2676 26.3973 15.7955 26.6885C16.3235 26.9773 16.7295 27.3928 17.0136 27.9349C17.3 28.4771 17.4433 29.1257 17.4433 29.8809C17.4433 30.6385 17.3 31.2896 17.0136 31.8341C16.7295 32.3786 16.3211 32.7964 15.7884 33.0876C15.2581 33.3788 14.6237 33.5244 13.885 33.5244ZM12.8445 32.2069H13.8211C14.2757 32.2069 14.658 32.1265 14.9681 31.9655C15.2806 31.8021 15.515 31.55 15.6713 31.2091C15.8299 30.8658 15.9092 30.4231 15.9092 29.8809C15.9092 29.3435 15.8299 28.9044 15.6713 28.5635C15.515 28.2226 15.2818 27.9716 14.9717 27.8106C14.6615 27.6497 14.2792 27.5692 13.8247 27.5692H12.8445V32.2069ZM18.5823 33.5244V26.2517H23.3976V27.5194H20.1199V29.2524H23.078V30.5202H20.1199V33.5244H18.5823Z" fill="white"/>
</svg>
