<svg width="40" height="46" viewBox="0 0 40 46" fill="none" xmlns="http://www.w3.org/2000/svg">
<path d="M7.75 4.64331C7.75 2.84838 9.20507 1.39331 11 1.39331H27C27.1057 1.39331 27.2064 1.43816 27.2771 1.51671L38.071 13.5067C38.1862 13.6347 38.25 13.8008 38.25 13.973V41.0757C38.25 42.8707 36.7949 44.3257 35 44.3257H11C9.20507 44.3257 7.75 42.8707 7.75 41.0757V4.64331Z" stroke="#D0D5DD" stroke-width="1.5"/>
<path d="M27 1.19873V9.97305C27 12.1822 28.7909 13.9731 31 13.9731H38.5" stroke="#D0D5DD" stroke-width="1.5"/>
<rect x="1" y="21.5244" width="26" height="16" rx="2" fill="#E62E05"/>
<path d="M4.81765 33.5244V26.2517H7.68697C8.23858 26.2517 8.70851 26.357 9.09677 26.5677C9.48503 26.7761 9.78095 27.0661 9.98455 27.4378C10.1905 27.8071 10.2935 28.2332 10.2935 28.7162C10.2935 29.1991 10.1893 29.6253 9.981 29.9946C9.77267 30.3639 9.47082 30.6515 9.07546 30.8575C8.68247 31.0635 8.20662 31.1665 7.6479 31.1665H5.81907V29.9342H7.39933C7.69525 29.9342 7.9391 29.8833 8.13086 29.7815C8.32499 29.6773 8.4694 29.5341 8.5641 29.3518C8.66116 29.1672 8.70969 28.9553 8.70969 28.7162C8.70969 28.4747 8.66116 28.264 8.5641 28.0841C8.4694 27.9018 8.32499 27.7609 8.13086 27.6615C7.93673 27.5597 7.69052 27.5088 7.39222 27.5088H6.35529V33.5244H4.81765ZM11.2923 33.5244V26.2517H14.1616C14.7132 26.2517 15.1831 26.357 15.5714 26.5677C15.9596 26.7761 16.2556 27.0661 16.4592 27.4378C16.6651 27.8071 16.7681 28.2332 16.7681 28.7162C16.7681 29.1991 16.6639 29.6253 16.4556 29.9946C16.2473 30.3639 15.9454 30.6515 15.5501 30.8575C15.1571 31.0635 14.6812 31.1665 14.1225 31.1665H12.2937V29.9342H13.8739C14.1699 29.9342 14.4137 29.8833 14.6055 29.7815C14.7996 29.6773 14.944 29.5341 15.0387 29.3518C15.1358 29.1672 15.1843 28.9553 15.1843 28.7162C15.1843 28.4747 15.1358 28.264 15.0387 28.0841C14.944 27.9018 14.7996 27.7609 14.6055 27.6615C14.4113 27.5597 14.1651 27.5088 13.8668 27.5088H12.8299V33.5244H11.2923ZM17.4899 27.5194V26.2517H23.4629V27.5194H21.2363V33.5244H19.7164V27.5194H17.4899Z" fill="white"/>
</svg>
