<svg width="40" height="46" viewBox="0 0 40 46" fill="none" xmlns="http://www.w3.org/2000/svg">
<path d="M7.75 4.64331C7.75 2.84838 9.20507 1.39331 11 1.39331H27C27.1057 1.39331 27.2064 1.43816 27.2771 1.51671L38.071 13.5067C38.1862 13.6347 38.25 13.8008 38.25 13.973V41.0757C38.25 42.8707 36.7949 44.3257 35 44.3257H11C9.20507 44.3257 7.75 42.8707 7.75 41.0757V4.64331Z" stroke="#D0D5DD" stroke-width="1.5"/>
<path d="M27 1.19873V9.97305C27 12.1822 28.7909 13.9731 31 13.9731H38.5" stroke="#D0D5DD" stroke-width="1.5"/>
<rect x="1" y="18.6433" width="27" height="16" rx="2" fill="#475467"/>
<path d="M4.60121 24.6383V23.3706H10.5742V24.6383H8.34766V30.6433H6.82777V24.6383H4.60121ZM12.9996 23.3706L14.4663 25.8493H14.5231L15.9968 23.3706H17.7333L15.5138 27.0069L17.783 30.6433H16.0146L14.5231 28.1611H14.4663L12.9748 30.6433H11.2134L13.4897 27.0069L11.256 23.3706H12.9996ZM18.4293 24.6383V23.3706H24.4023V24.6383H22.1758V30.6433H20.6559V24.6383H18.4293Z" fill="white"/>
</svg>
