<svg width="40" height="46" viewBox="0 0 40 46" fill="none" xmlns="http://www.w3.org/2000/svg">
<path d="M7.75 4.64331C7.75 2.84838 9.20507 1.39331 11 1.39331H27C27.1057 1.39331 27.2064 1.43816 27.2771 1.51671L38.071 13.5067C38.1862 13.6347 38.25 13.8008 38.25 13.973V41.0757C38.25 42.8707 36.7949 44.3257 35 44.3257H11C9.20507 44.3257 7.75 42.8707 7.75 41.0757V4.64331Z" stroke="#D0D5DD" stroke-width="1.5"/>
<path d="M27 1.19873V9.97305C27 12.1822 28.7909 13.9731 31 13.9731H38.5" stroke="#D0D5DD" stroke-width="1.5"/>
<rect x="1" y="21.5244" width="26" height="16" rx="2" fill="#0B9692"/>
<path d="M6.38636 26.2517L7.85298 28.7304H7.9098L9.38352 26.2517H11.12L8.90057 29.8881L11.1697 33.5244H9.40128L7.9098 31.0422H7.85298L6.36151 33.5244H4.60014L6.87642 29.8881L4.64276 26.2517H6.38636ZM12.093 33.5244V26.2517H13.6307V32.2567H16.7486V33.5244H12.093ZM21.7122 28.3433C21.6838 28.0568 21.5618 27.8343 21.3464 27.6757C21.131 27.5171 20.8386 27.4378 20.4693 27.4378C20.2183 27.4378 20.0065 27.4733 19.8336 27.5443C19.6608 27.613 19.5282 27.7088 19.4359 27.8319C19.3459 27.955 19.301 28.0947 19.301 28.251C19.2962 28.3812 19.3234 28.4948 19.3826 28.5919C19.4442 28.689 19.5282 28.773 19.6348 28.844C19.7413 28.9127 19.8644 28.973 20.0041 29.0251C20.1438 29.0748 20.2929 29.1175 20.4515 29.153L21.1049 29.3092C21.4222 29.3802 21.7134 29.4749 21.9785 29.5933C22.2437 29.7117 22.4733 29.8573 22.6674 30.0301C22.8616 30.2029 23.0119 30.4065 23.1184 30.6409C23.2273 30.8753 23.283 31.144 23.2853 31.447C23.283 31.8921 23.1693 32.278 22.9444 32.6047C22.7219 32.929 22.3999 33.1811 21.9785 33.3611C21.5595 33.5386 21.054 33.6274 20.4622 33.6274C19.8751 33.6274 19.3637 33.5374 18.9281 33.3575C18.4949 33.1776 18.1563 32.9113 17.9125 32.5585C17.671 32.2034 17.5443 31.7642 17.5325 31.241H19.0204C19.037 31.4849 19.1068 31.6885 19.2299 31.8518C19.3554 32.0128 19.5223 32.1347 19.7306 32.2176C19.9413 32.2981 20.1793 32.3383 20.4444 32.3383C20.7048 32.3383 20.9309 32.3005 21.1227 32.2247C21.3168 32.1489 21.4672 32.0436 21.5737 31.9086C21.6802 31.7737 21.7335 31.6186 21.7335 31.4434C21.7335 31.2801 21.685 31.1428 21.5879 31.0315C21.4932 30.9202 21.3535 30.8256 21.1689 30.7474C20.9866 30.6693 20.7628 30.5983 20.4977 30.5344L19.7058 30.3355C19.0926 30.1863 18.6085 29.9532 18.2534 29.6359C17.8983 29.3187 17.7219 28.8914 17.7243 28.354C17.7219 27.9136 17.8391 27.5289 18.0758 27.1998C18.3149 26.8708 18.6428 26.6139 19.0595 26.4292C19.4761 26.2446 19.9496 26.1523 20.4799 26.1523C21.0197 26.1523 21.4908 26.2446 21.8933 26.4292C22.2981 26.6139 22.613 26.8708 22.8379 27.1998C23.0628 27.5289 23.1788 27.9101 23.1859 28.3433H21.7122Z" fill="white"/>
</svg>
