<svg width="40" height="45" viewBox="0 0 40 45" fill="none" xmlns="http://www.w3.org/2000/svg">
<path d="M7.75 4.38379C7.75 2.58886 9.20507 1.13379 11 1.13379H27C27.1057 1.13379 27.2064 1.17864 27.2771 1.25719L38.071 13.2471C38.1862 13.3751 38.25 13.5413 38.25 13.7135V40.8162C38.25 42.6112 36.7949 44.0662 35 44.0662H11C9.20507 44.0662 7.75 42.6111 7.75 40.8162V4.38379Z" stroke="#D0D5DD" stroke-width="1.5"/>
<path d="M27 0.939209V9.71353C27 11.9227 28.7909 13.7135 31 13.7135H38.5" stroke="#D0D5DD" stroke-width="1.5"/>
<rect x="1" y="21.2649" width="22" height="16" rx="2" fill="#344054"/>
<path d="M4.58034 33.2649V32.3523L8.20961 27.2599H4.57324V25.9922H10.1414V26.9048L6.50861 31.9971H10.1485V33.2649H4.58034ZM12.866 25.9922V33.2649H11.3284V25.9922H12.866ZM14.1311 33.2649V25.9922H17.0004C17.5521 25.9922 18.022 26.0975 18.4102 26.3082C18.7985 26.5165 19.0944 26.8066 19.298 27.1782C19.504 27.5476 19.607 27.9737 19.607 28.4567C19.607 28.9396 19.5028 29.3657 19.2945 29.7351C19.0861 30.1044 18.7843 30.392 18.3889 30.598C17.9959 30.804 17.5201 30.9069 16.9614 30.9069H15.1325V29.6747H16.7128C17.0087 29.6747 17.2526 29.6238 17.4443 29.522C17.6385 29.4178 17.7829 29.2746 17.8776 29.0923C17.9746 28.9076 18.0232 28.6958 18.0232 28.4567C18.0232 28.2152 17.9746 28.0045 17.8776 27.8246C17.7829 27.6423 17.6385 27.5014 17.4443 27.402C17.2502 27.3002 17.004 27.2493 16.7057 27.2493H15.6688V33.2649H14.1311Z" fill="white"/>
</svg>
